<svg id="Layer_1" data-name="Layer 1" xmlns="http://www.w3.org/2000/svg" viewBox="0 0 1200 1200"><defs><style>.cls-1{fill:#ebe9f0;}.cls-2{fill:#fff;}.cls-3{fill:#37453f;}.cls-4{fill:#ff5f57;}.cls-5{fill:#febc2e;}.cls-6{fill:#27c840;}.cls-7{fill:#444142;}.cls-8{fill:#18161f;}.cls-9{fill:#1a4b98;}.cls-10{fill:#f485b7;}.cls-11{fill:#f1f29d;}.cls-12{fill:#e17ba9;}.cls-13{fill:#0b0759;}.cls-14{fill:#0d096c;}.cls-15{fill:#262432;}</style></defs><path class="cls-1" d="M126,773.69c-20.47-100.38,94.28-188.14,109.33-209.64,33.4-53.1-55.65-63.45-13-238.45S584.83,221,662.1,260.72,826.24,258,905.94,279.66c70.86,19.25,120.68,96.52,109,169-9.54,59.09-54,113.62-42.27,172.3,31.22,107.1,168.89,155.67,66.61,281.63s-214.67-3.14-447.42,67.75S146.45,874.07,126,773.69Z"/><path class="cls-2" d="M275.56,810.84h-6.2c-6.2,0-11.21-5.88-11.18-13.05l2.12-633.95a9.31,9.31,0,0,1,.57-3.23,10.58,10.58,0,0,1,4.48-5.5,12.69,12.69,0,0,1,1.88-.94,12,12,0,0,1,4.33-.79L864.14,155a8.35,8.35,0,0,1,5.28,1.92,7.69,7.69,0,0,1,.68.63,11,11,0,0,1,3.17,7.95l-2.13,634c0,7.28-4,13-9.17,13Z"/><path class="cls-3" d="M271.56,155.79l592.57,1.68a5.94,5.94,0,0,1,3.76,1.38c.18.14.34.3.51.46a8.65,8.65,0,0,1,2.45,6.22l-.11,29.78-2,604.19c0,5.84-3,10.56-6.74,10.56h0l-9.09,0-577.29-1.63h-6.21c-4.85,0-8.77-4.76-8.75-10.61l2.12-634a7,7,0,0,1,.42-2.4,8.15,8.15,0,0,1,3.47-4.26,8.75,8.75,0,0,1,1.5-.75,9.69,9.69,0,0,1,3.44-.63m0-4.85h0a14.43,14.43,0,0,0-5.19.95,13.35,13.35,0,0,0-2.3,1.15,13,13,0,0,0-5.5,6.78,11.83,11.83,0,0,0-.7,4l-2.11,633.95c0,8.49,6.05,15.44,13.58,15.48h6.22l577.28,1.62,9.1,0c6.51,0,11.61-6.77,11.63-15.41l2-604.19.1-29.77a13.47,13.47,0,0,0-3.91-9.71,9.65,9.65,0,0,0-.87-.79,10.79,10.79,0,0,0-6.79-2.44l-592.56-1.67Z"/><path class="cls-3" d="M870.84,166.43l-.1,32.51-608.1-1.86.1-32.52a8.8,8.8,0,0,1,8.82-8.77l592.58,1.82C867.85,157.62,870.86,161.57,870.84,166.43Z"/><circle class="cls-4" cx="284.02" cy="177.65" r="7.47"/><circle class="cls-5" cx="309.96" cy="177.65" r="7.47"/><circle class="cls-6" cx="335.91" cy="177.65" r="7.47"/><path class="cls-7" d="M692.65,377.4H424a3.31,3.31,0,0,1,0-6.62h268.7a3.31,3.31,0,1,1,0,6.62Z"/><path class="cls-7" d="M671.24,406.27H445.35a3.31,3.31,0,0,1,0-6.62H671.24a3.31,3.31,0,0,1,0,6.62Z"/><rect class="cls-7" x="504.94" y="336.37" width="106.72" height="15.14" rx="2.3"/><path class="cls-8" d="M786.65,608a105.57,105.57,0,0,0-50.06,204.9c0,.14-.08.28-.11.42l-42,217a9.56,9.56,0,1,0,18.76,3.7l42-217c0-.14,0-.28.06-.43A105.57,105.57,0,0,0,786.65,608Zm65.26,120.45a87.29,87.29,0,1,1-68.79-102.52A87.3,87.3,0,0,1,851.91,728.45Z"/><rect class="cls-9" x="699.36" y="882.15" width="32.18" height="161.93" rx="7.77" transform="translate(216.68 -128.07) rotate(12.04)"/><path class="cls-10" d="M897.74,563.18c-12.52.13-25,.57-37.55,1,1.53-19.55,2.76-39.11,4.25-58.65q14.74.18,29.48.3C895,525,896.3,544.08,897.74,563.18Z"/><path class="cls-10" d="M853.7,524.74h6.49c14.63,0,40.57-11.85,40.57-26.48V484.51A26.48,26.48,0,0,0,874.28,458h-6.49a26.48,26.48,0,0,0-26.48,26.48v13.75C841.31,512.89,839.08,524.74,853.7,524.74Z"/><rect class="cls-9" x="833.65" y="451.65" width="51.11" height="27.71" rx="13.85" transform="translate(-90.01 233.32) rotate(-14.7)"/><path class="cls-10" d="M798.09,599.4l-3.26,9.06-3.27,9.06,78.35,23.83,32.24-25a19,19,0,0,0,2.73-28.14h0a19,19,0,0,0-28.22.33l-21.12,24.07Z"/><path class="cls-10" d="M767.75,598.69h0a10.18,10.18,0,0,0,5.6,12.82l13.67,5.8a10.18,10.18,0,0,0,13.54-5.92l.55-1.53a10.16,10.16,0,0,0-6.64-13.19l-14.23-4.27A10.17,10.17,0,0,0,767.75,598.69Z"/><path class="cls-11" d="M898.82,555.6l-32.4,33.73,31.41,30.18c1.69,1.62,4.61,1.32,6.53-.68l28.93-30.11a17.14,17.14,0,0,0-.49-24.24l-9.74-9.36A17.15,17.15,0,0,0,898.82,555.6Z"/><path class="cls-11" d="M840.79,545.08h84.52a12.23,12.23,0,0,1,12.23,12.23V678.45a0,0,0,0,1,0,0h-109a0,0,0,0,1,0,0V557.31A12.23,12.23,0,0,1,840.79,545.08Z"/><path class="cls-12" d="M925.75,996.18l-11.93,1.87a4.12,4.12,0,0,0-3.46,4.32l1.77,28.39,19.26-.42-.9-30.22A4.11,4.11,0,0,0,925.75,996.18Z"/><path class="cls-13" d="M931.24,1024.14l.39,17.89-66.24,1.45c-.35-15.77,46.27-18.91,46.27-18.91Z"/><polygon class="cls-8" points="895.91 1010.63 917.65 1009.05 939.39 1007.48 936.87 832.74 938.02 669.19 868.32 669.19 885.35 837.73 895.91 1010.63"/><path class="cls-10" d="M829.87,987.93l1.79,44.37h19.26l-.32-41.64a2.39,2.39,0,0,0-2-2.33l-16-2.84A2.38,2.38,0,0,0,829.87,987.93Z"/><path class="cls-14" d="M850.91,1026.1V1044H784.65c0-15.77,46.68-17.89,46.68-17.89Z"/><polygon class="cls-15" points="816.61 1006.63 838.4 1006.85 860.2 1007.06 865.2 841.76 892.66 669.19 829.32 669.19 814.49 831.37 816.61 1006.63"/><rect class="cls-9" x="853.12" y="447.33" width="63.8" height="71.15" rx="23.67" transform="translate(-22.25 43.22) rotate(-2.76)"/><path class="cls-10" d="M844.17,493.13c0,7.56,5.76,12.34,12.7,11.84a13.86,13.86,0,0,0,13-13.63c0-7.55-5.76-12.34-12.71-11.85A13.82,13.82,0,0,0,844.17,493.13Z"/><path class="cls-10" d="M880.77,485.16l-1.42-11.08L877.93,463,770.82,502.4a5.38,5.38,0,0,0-2.57,8.19l29.82,41.8a19.15,19.15,0,0,0,27.8,5.22h0a19.15,19.15,0,0,0,2.46-28.39l-12.12-18Z"/><path class="cls-10" d="M906.39,468.89h0c-.8-6.22-5.42-10.58-10.53-9.95l-14.05,1.74c-5.53.68-9.45,6.9-8.59,13.62l.24,1.87c.86,6.71,6.15,11.16,11.58,9.74l13.81-3.61C903.87,481,907.18,475.1,906.39,468.89Z"/><path class="cls-11" d="M822.15,587.38l-32.33-35.92,32.38-29.14c1.74-1.56,4.65-1.16,6.5.9l29,32.19a15.58,15.58,0,0,1-1.16,22l-12.35,11.12A15.58,15.58,0,0,1,822.15,587.38Z"/></svg>