<?xml version="1.0" encoding="iso-8859-1"?>
<!-- Uploaded to: SVG Repo, www.svgrepo.com, Generator: SVG Repo Mixer Tools -->
<svg version="1.1" id="Layer_1" xmlns="http://www.w3.org/2000/svg" xmlns:xlink="http://www.w3.org/1999/xlink" 
	 viewBox="0 0 512 512" xml:space="preserve">
<path style="fill:#D1D3D3;" d="M462.687,442.959V206.464c0-8.732-7.145-15.877-15.877-15.877H65.183
	c-8.732,0-15.877,7.145-15.877,15.877v236.495H462.687z"/>
<rect x="49.307" y="387.995" style="opacity:0.1;enable-background:new    ;" width="45.864" height="22.071"/>
<rect x="72.241" y="326.678" style="opacity:0.1;enable-background:new    ;" width="45.864" height="22.071"/>
<rect x="336.965" y="330.213" style="opacity:0.1;enable-background:new    ;" width="45.864" height="22.07"/>
<rect x="416.827" y="341.242" style="opacity:0.1;enable-background:new    ;" width="45.864" height="22.07"/>
<rect x="378.955" y="392.229" style="opacity:0.1;enable-background:new    ;" width="45.864" height="22.071"/>
<rect x="136.628" y="354.865" style="opacity:0.1;enable-background:new    ;" width="45.864" height="22.07"/>
<path style="fill:#0071CE;" d="M446.81,190.588H65.183c-8.732,0-15.877,7.145-15.877,15.877v110.309h413.381V206.466
	C462.687,197.733,455.542,190.588,446.81,190.588z"/>
<rect x="159.565" y="316.77" style="fill:#FFFFFF;" width="192.865" height="126.191"/>
<path style="fill:#333E48;" d="M504.061,450.611c0,2.351-1.922,4.275-4.275,4.275H12.214c-2.352,0-4.275-1.924-4.275-4.275v-15.302
	c0-2.353,1.923-4.277,4.275-4.277h487.573c2.353,0,4.275,1.924,4.275,4.277V450.611z"/>
<rect x="248.054" y="316.77" style="fill:#00B3E3;" width="15.876" height="114.252"/>
<rect x="159.565" y="316.77" style="opacity:0.1;enable-background:new    ;" width="192.865" height="22.281"/>
<path style="fill:#A4A9AD;" d="M348.37,95.12c2.353-6.349-1.263-11.544-8.035-11.544H197.982c-6.771,0-11.818,5.518-11.216,12.263
	l4.725,52.85c0.603,6.744,6.637,12.261,13.408,12.261h106.779c6.771,0,14.236-5.195,16.588-11.544L348.37,95.12z"/>
<g>
	<circle style="fill:#333E48;" cx="219.718" cy="175.771" r="14.819"/>
	<circle style="fill:#333E48;" cx="153.436" cy="71.933" r="14.819"/>
	<circle style="fill:#333E48;" cx="288.519" cy="175.771" r="14.819"/>
</g>
<path style="fill:#00B3E3;" d="M424.822,244.816H228.715c-4.384,0-7.939-3.553-7.939-7.939s3.554-7.939,7.939-7.939h196.106
	c4.385,0,7.939,3.553,7.939,7.939C432.76,241.263,429.206,244.816,424.822,244.816z"/>
<path style="fill:#FFB819;" d="M424.822,277.555H228.715c-4.384,0-7.939-3.553-7.939-7.939c0-4.385,3.554-7.939,7.939-7.939h196.106
	c4.385,0,7.939,3.553,7.939,7.939C432.76,274,429.206,277.555,424.822,277.555z"/>
<g>
	<path style="fill:#00AD68;" d="M499.172,394.547c0-20.15-16.335-89.367-36.486-89.367c-20.149,0-36.486,69.217-36.486,89.367
		s16.336,36.485,36.486,36.485C482.837,431.031,499.172,414.697,499.172,394.547z"/>
	<path style="fill:#00AD68;" d="M85.791,394.547c0-20.15-16.335-89.367-36.486-89.367c-20.149,0-36.486,69.217-36.486,89.367
		s16.336,36.485,36.486,36.485C69.456,431.031,85.791,414.697,85.791,394.547z"/>
</g>
<rect x="132.214" y="190.589" style="fill:#00B3E3;" width="36.041" height="126.191"/>
<rect x="96.173" y="190.589" style="fill:#FFB819;" width="36.041" height="126.191"/>
<rect x="132.743" y="431.033" style="fill:#A4A9AD;" width="246.529" height="23.855"/>
<path style="fill:#1E252B;" d="M499.786,423.093h-3.097c6.498-7.727,10.422-17.684,10.422-28.546
	c0-10.395-3.888-33.115-11.093-54.749c-7.515-22.562-15.878-35.983-25.392-40.663v-92.67c0-13.131-10.684-23.816-23.816-23.816
	H310.208c0.69-2.172,1.069-4.482,1.069-6.88c0-2.398-0.378-4.708-1.069-6.88h1.47c10.169,0,20.501-7.19,24.033-16.726l20.103-54.284
	c2.038-5.498,1.482-11.128-1.523-15.446c-3.006-4.319-8.093-6.795-13.956-6.795H197.982c-4.913,0-9.601,1.845-13.112,5.085
	l-8.998-5.131c0.195-1.194,0.322-2.41,0.322-3.658c0-12.548-10.209-22.757-22.757-22.757c-12.548,0-22.757,10.209-22.757,22.757
	s10.209,22.757,22.757,22.757c5.543,0,10.626-1.997,14.578-5.304l10.807,6.163c0.013,0.331,0.007,0.664,0.038,0.996l4.725,52.85
	c0.762,8.523,6.939,15.767,14.843,18.41c-0.931,2.483-1.466,5.159-1.466,7.963c0,2.399,0.378,4.708,1.069,6.88H65.183
	c-13.132,0-23.816,10.684-23.816,23.816v92.67c-9.514,4.681-17.877,18.1-25.392,40.663C8.771,361.43,4.883,384.151,4.883,394.546
	c0,10.862,3.924,20.819,10.422,28.546h-3.091C5.479,423.093,0,428.574,0,435.309v15.302c0,6.734,5.479,12.214,12.214,12.214h487.573
	c6.734,0,12.214-5.48,12.214-12.214v-15.302C512,428.574,506.52,423.093,499.786,423.093z M153.436,78.813
	c-3.794,0-6.88-3.087-6.88-6.88s3.087-6.88,6.88-6.88c3.794,0,6.88,3.087,6.88,6.88S157.23,78.813,153.436,78.813z M462.687,313.118
	c2.001,0,9.649,5.824,18.267,31.697c6.35,19.063,10.28,40.656,10.28,49.73c0,15.741-12.806,28.546-28.547,28.546
	c-15.741,0-28.547-12.805-28.547-28.546c0-9.074,3.93-30.668,10.28-49.73C453.039,318.942,460.686,313.118,462.687,313.118z
	 M428.684,423.093h-68.316v-98.38h74.735c-1.97,4.475-3.885,9.497-5.747,15.086c-7.206,21.633-11.093,44.353-11.093,54.749
	C418.263,405.409,422.186,415.366,428.684,423.093z M320.823,146.649c-1.19,3.211-5.718,6.364-9.144,6.364H204.9
	c-2.643,0-5.266-2.397-5.501-5.03l-0.428-4.78h123.127L320.823,146.649z M295.4,175.77c0,3.794-3.086,6.88-6.88,6.88
	c-3.794,0-6.88-3.087-6.88-6.88c0-3.794,3.086-6.88,6.88-6.88C292.314,168.89,295.4,171.976,295.4,175.77z M266.832,182.65h-25.425
	c0.69-2.172,1.069-4.482,1.069-6.88s-0.378-4.708-1.069-6.88h25.425c-0.69,2.172-1.069,4.482-1.069,6.88
	C265.763,178.167,266.141,180.478,266.832,182.65z M226.598,175.77c0,3.794-3.087,6.88-6.88,6.88c-3.794,0-6.88-3.087-6.88-6.88
	c0-3.794,3.087-6.88,6.88-6.88C223.512,168.89,226.598,171.976,226.598,175.77z M194.674,95.134
	c-0.116-1.302,0.367-2.132,0.794-2.597c0.427-0.466,1.209-1.021,2.515-1.021h142.353c0.348,0,0.612,0.035,0.797,0.075
	c-0.026,0.186-0.086,0.447-0.206,0.773l-2.952,7.97H195.138L194.674,95.134z M197.552,127.325l-0.994-11.114h135.537l-4.116,11.114
	H197.552z M176.194,198.527H446.81c4.378,0,7.939,3.561,7.939,7.939v92.671c-3.768,1.853-7.354,5.079-10.781,9.7H176.194V198.527z
	 M167.501,324.712h176.99v98.38h-176.99V324.712z M140.152,198.527h20.165v110.309h-20.165V198.527z M82.637,339.798
	c-1.862-5.59-3.777-10.611-5.748-15.086h74.735v98.38H83.308c6.497-7.727,10.422-17.684,10.422-28.546
	C93.73,384.152,89.842,361.431,82.637,339.798z M104.108,198.527h20.165v110.309h-20.165V198.527z M57.245,206.466
	c0-4.378,3.562-7.939,7.939-7.939h23.048v110.309H68.025c-3.425-4.621-7.012-7.846-10.779-9.7V206.466z M31.04,344.817
	c8.618-25.873,16.267-31.697,18.267-31.697s9.649,5.824,18.267,31.697c6.35,19.063,10.28,40.656,10.28,49.73
	c0,15.741-12.806,28.546-28.547,28.546S20.76,410.287,20.76,394.547C20.76,385.473,24.69,363.879,31.04,344.817z M124.8,446.948
	H15.877v-7.978H124.8V446.948z M371.332,446.948H140.678v-7.978h230.655v7.978H371.332z M496.123,446.948H387.209v-7.978h108.913
	v7.978H496.123z"/>
</svg>